<svg width="22" height="22" viewBox="0 0 22 22" fill="none" xmlns="http://www.w3.org/2000/svg">
<path fill-rule="evenodd" clip-rule="evenodd" d="M11.0233 0.00194246C9.87934 -0.00561648 8.82785 0.640333 8.31824 1.66208L7.84559 2.60738C7.65933 2.67654 7.47609 2.7523 7.29482 2.83394L6.29288 2.49996C5.21046 2.13864 4.00907 2.4251 3.20698 3.24018C2.41646 4.04362 2.14509 5.22646 2.50191 6.29288L2.83589 7.29287C2.7525 7.47542 2.67448 7.65986 2.60347 7.84755L1.66208 8.31824C0.641397 8.82734 -0.00642599 9.87782 0.00194167 11.0213C0.0101923 12.1488 0.654244 13.1772 1.66012 13.6795L2.60738 14.1561C2.67682 14.3424 2.75233 14.5257 2.83394 14.7068L2.50191 15.7068C2.14095 16.7882 2.4265 17.9885 3.24018 18.7908C4.043 19.5823 5.22592 19.8539 6.29288 19.4978L7.29287 19.1658C7.47519 19.2489 7.66008 19.3252 7.84755 19.3962L8.31824 20.3357C8.82785 21.3575 9.87934 22.0048 11.0233 21.9958C12.1505 21.9882 13.1793 21.3425 13.6815 20.3357L14.1522 19.3943C14.3408 19.3244 14.5273 19.2485 14.7107 19.1658L15.7068 19.4978C16.7738 19.8538 17.9567 19.5825 18.7595 18.7908C19.5737 17.988 19.8597 16.7867 19.4978 15.7049L19.1658 14.7049C19.2487 14.5231 19.3255 14.339 19.3962 14.1522L20.3376 13.6795C21.3443 13.1775 21.9895 12.1492 21.9978 11.0213C22.0061 9.87778 21.3583 8.82734 20.3376 8.31824L19.3923 7.84559C19.3228 7.65813 19.2476 7.47335 19.1658 7.29091L19.4978 6.29288V6.29093C19.8536 5.225 19.5828 4.04313 18.7927 3.24018C17.9906 2.42495 16.7892 2.13875 15.7068 2.49996L14.7049 2.83394C14.5231 2.75117 14.3391 2.67415 14.1522 2.60347L13.6815 1.66208C13.1793 0.6553 12.1505 0.0107486 11.0233 0.00194246ZM11.0077 2.00192C11.3838 2.00483 11.7236 2.21811 11.8924 2.5566L12.5272 3.82611C12.5868 3.94552 12.6697 4.05179 12.771 4.13867C12.8723 4.22554 12.9899 4.29127 13.117 4.33197C13.4938 4.45215 13.8597 4.60295 14.2107 4.78509C14.3293 4.84677 14.4589 4.88408 14.5921 4.89481C14.7253 4.90555 14.8593 4.88949 14.9861 4.84758L16.3377 4.39837H16.3396C16.7038 4.27667 17.0995 4.3719 17.367 4.64251C17.6304 4.91047 17.7194 5.30133 17.5994 5.66007V5.66203L17.1521 7.00771C17.1104 7.13347 17.0941 7.26625 17.1042 7.39835C17.1143 7.53046 17.1505 7.65924 17.2107 7.77724C17.3906 8.12911 17.5399 8.49581 17.658 8.87292C17.6982 9.00126 17.7639 9.12016 17.8512 9.22252C17.9384 9.32487 18.0454 9.40858 18.1658 9.46862L19.4431 10.1073C19.7866 10.2785 20.0006 10.6248 19.9978 11.0057C19.995 11.381 19.7818 11.7216 19.4431 11.8905H19.4412L18.1716 12.5272C18.0526 12.587 17.9467 12.67 17.8602 12.7712C17.7736 12.8725 17.7082 12.9901 17.6677 13.117C17.5468 13.4938 17.3954 13.8597 17.2127 14.2107C17.1507 14.3295 17.1133 14.4595 17.1025 14.5931C17.0918 14.7266 17.108 14.8609 17.1502 14.9881L17.5994 16.3377C17.7212 16.7016 17.6287 17.0973 17.3572 17.365C17.0896 17.6288 16.6985 17.7192 16.3396 17.5994H16.3377L14.992 17.1521C14.8659 17.1102 14.7328 17.0937 14.6004 17.1038C14.4679 17.1138 14.3388 17.1502 14.2205 17.2107C13.8682 17.3914 13.5026 17.5414 13.1248 17.6599C12.9965 17.7002 12.8776 17.7659 12.7752 17.8531C12.6729 17.9404 12.5892 18.0474 12.5291 18.1677L11.8924 19.4412C11.7236 19.7798 11.3838 19.9929 11.0077 19.9958C10.6258 19.9988 10.2787 19.7849 10.1073 19.4412L9.47253 18.1736C9.41293 18.0542 9.33004 17.9479 9.22874 17.861C9.12745 17.7742 9.00978 17.7084 8.88269 17.6677C8.50528 17.5468 8.13857 17.3956 7.787 17.2127C7.66822 17.1507 7.53821 17.1133 7.40468 17.1025C7.27114 17.0918 7.13682 17.108 7.00967 17.1502L5.66007 17.5994C5.30117 17.7192 4.91008 17.6296 4.64251 17.365C4.37098 17.0974 4.27854 16.7017 4.40032 16.3377V16.3357L4.84758 14.99C4.88925 14.8639 4.90535 14.7307 4.89495 14.5982C4.88456 14.4657 4.84787 14.3367 4.78704 14.2186C4.60664 13.8674 4.45653 13.5014 4.33782 13.1248C4.29781 12.9972 4.23259 12.8789 4.14604 12.7769C4.05949 12.6749 3.95335 12.5913 3.83392 12.5311L2.55855 11.8905H2.5566C2.21788 11.7215 2.00466 11.3812 2.00192 11.0057C1.99913 10.6248 2.21307 10.2786 2.5566 10.1073L3.82611 9.47253C3.94552 9.41293 4.05179 9.33005 4.13867 9.22875C4.22554 9.12745 4.29127 9.00978 4.33197 8.88269C4.45287 8.50588 4.6043 8.13999 4.78704 7.78895C4.84872 7.67044 4.88603 7.54076 4.89677 7.40759C4.9075 7.27441 4.89144 7.14044 4.84954 7.01357L4.40032 5.66203V5.66007C4.2803 5.3014 4.36926 4.91029 4.63274 4.64251C4.90024 4.37076 5.29586 4.27705 5.66007 4.39837L7.00771 4.84758C7.13375 4.88954 7.26689 4.90597 7.39935 4.89591C7.5318 4.88585 7.66093 4.84951 7.77919 4.78899C8.13049 4.60909 8.49638 4.4598 8.87292 4.34173C9.00126 4.30149 9.12016 4.23578 9.22252 4.14853C9.32487 4.06128 9.40857 3.95428 9.46862 3.83393L10.1073 2.5566C10.2787 2.21267 10.6258 1.99893 11.0077 2.00192ZM11.0038 5.99991C8.25422 5.99991 5.99797 8.24836 5.99796 10.9979C5.99794 13.7474 8.2542 16.0017 11.0038 16.0017C13.7533 16.0017 15.9998 13.7474 15.9998 10.9979C15.9998 8.24836 13.7533 5.99991 11.0038 5.99991ZM11.0038 7.99989C12.6724 7.99989 13.9998 9.32922 13.9998 10.9979C13.9998 12.6666 12.6724 14.0018 11.0038 14.0018C9.33507 14.0018 7.99792 12.6666 7.99793 10.9979C7.99794 9.32922 9.33508 7.99989 11.0038 7.99989Z" fill="black"/>
</svg>
