<svg width="55" height="61" viewBox="0 0 55 61" fill="none" xmlns="http://www.w3.org/2000/svg">
<path d="M28.5 55C40.3741 55 50 45.3741 50 33.5C50 21.6259 40.3741 12 28.5 12C16.6259 12 7 21.6259 7 33.5C7 45.3741 16.6259 55 28.5 55Z" fill="#EFEFD2"/>
<path d="M38.2301 29.6C41.4742 31.9528 43.7335 35.4224 44.5731 39.341L49.0001 60H40.0001L45.0001 57L36.0001 38L34.0001 39L15.1821 58.909H6.45508L11.9091 56.727L27.1821 36L38.2301 29.6Z" fill="#BD53B5" stroke="#4C241D" stroke-width="2" stroke-linecap="round" stroke-linejoin="round"/>
<path d="M13.1221 58.2L20.4851 33.948C20.5878 33.6173 20.6228 33.2692 20.5881 32.9246C20.5534 32.58 20.4497 32.2459 20.2831 31.9422C20.1165 31.6386 19.8905 31.3716 19.6186 31.1571C19.3466 30.9427 19.0342 30.7852 18.7001 30.694C18.3485 30.5979 17.9805 30.5773 17.6203 30.6337C17.2602 30.6901 16.9161 30.8221 16.6107 31.021C16.3052 31.22 16.0454 31.4814 15.8483 31.788C15.6512 32.0947 15.5213 32.4396 15.4671 32.8L11.2671 57.688L13.1221 58.2Z" fill="#FFE8DC" stroke="#4C241D" stroke-width="2" stroke-linecap="round" stroke-linejoin="round"/>
<path d="M27.1819 36.0001L21.7999 35.2311C20.309 35.0182 18.8633 34.561 17.5209 33.8781L12.7209 31.4391V28.1151L16.5659 25.1831C18.5007 23.7075 20.8667 22.9085 23.2999 22.9091C25.1351 22.909 26.9417 23.3639 28.5579 24.2331L36.3919 28.4451C37.0299 28.7883 37.6439 29.1742 38.2299 29.6001L27.1819 36.0001Z" fill="#FC8C29" stroke="#4C241D" stroke-width="2" stroke-linecap="round" stroke-linejoin="round"/>
<path d="M49 4V7M49 11V14M47 9H44M54 9H51" stroke="#4C241D" stroke-width="2" stroke-linecap="round" stroke-linejoin="round"/>
<path d="M33 7C33.5523 7 34 6.55228 34 6C34 5.44772 33.5523 5 33 5C32.4477 5 32 5.44772 32 6C32 6.55228 32.4477 7 33 7Z" fill="#4C241D"/>
<path d="M54 25C54.5523 25 55 24.5523 55 24C55 23.4477 54.5523 23 54 23C53.4477 23 53 23.4477 53 24C53 24.5523 53.4477 25 54 25Z" fill="#4C241D"/>
<path d="M4.5 19C5.88071 19 7 17.8807 7 16.5C7 15.1193 5.88071 14 4.5 14C3.11929 14 2 15.1193 2 16.5C2 17.8807 3.11929 19 4.5 19Z" stroke="#4C241D" stroke-width="2" stroke-linecap="round" stroke-linejoin="round"/>
<path d="M33.689 23.246L30 18.35L35.973 16.99" stroke="#4C241D" stroke-width="2" stroke-linecap="round" stroke-linejoin="round"/>
<path d="M13.9999 35H5.99992C3.43292 35.063 1.94692 32.855 1.88892 30.471C1.90473 29.2814 2.39185 28.1466 3.24337 27.3157C4.09488 26.4848 5.24125 26.0257 6.43092 26.039L10.7509 25.932C11.187 25.911 11.6225 25.9821 12.0293 26.1406C12.4361 26.299 12.805 26.5414 13.1119 26.8518C13.4188 27.1622 13.657 27.5338 13.8108 27.9423C13.9647 28.3509 14.0308 28.7872 14.0049 29.223L13.9999 35ZM9.68292 1.10703L15.3239 25.817C15.3991 26.1547 15.5414 26.4737 15.7424 26.7553C15.9433 27.0368 16.1988 27.2751 16.4937 27.4559C16.7886 27.6367 17.1169 27.7563 17.4589 27.8077C17.801 27.8591 18.1499 27.8412 18.4849 27.755C18.8384 27.6643 19.1685 27.4997 19.4537 27.272C19.7388 27.0443 19.9724 26.7587 20.139 26.4341C20.3056 26.1094 20.4015 25.7531 20.4203 25.3887C20.439 25.0243 20.3803 24.6601 20.2479 24.32L11.5419 0.629028L9.68292 1.10703Z" fill="#FFE8DC" stroke="#4C241D" stroke-width="2" stroke-linecap="round" stroke-linejoin="round"/>
<path d="M45 30L44.778 29.335C43.9368 26.8116 42.4327 24.5606 40.4233 22.8178C38.4139 21.0749 35.973 19.9041 33.356 19.428L31 19" stroke="#4C241D" stroke-width="2" stroke-linecap="round" stroke-linejoin="round"/>
</svg>
