<svg width="22" height="14" viewBox="0 0 22 14" fill="none" xmlns="http://www.w3.org/2000/svg">
<path d="M1.72001 2.64999C1.91556 2.70742 2.10356 2.78799 2.28001 2.88999C2.89982 3.25993 3.60819 3.45524 4.33001 3.45524C5.05182 3.45524 5.76019 3.25993 6.38001 2.88999C6.77047 2.66915 7.21142 2.55309 7.66001 2.55309C8.10859 2.55309 8.54955 2.66915 8.94001 2.88999C9.56731 3.24869 10.2774 3.43737 11 3.43737C11.7226 3.43737 12.4327 3.24869 13.06 2.88999C13.4505 2.66915 13.8914 2.55309 14.34 2.55309C14.7886 2.55309 15.2295 2.66915 15.62 2.88999C16.2537 3.25218 16.9701 3.44504 17.7 3.44999C18.4052 3.44854 19.0966 3.25494 19.7 2.88999C19.8765 2.78799 20.0645 2.70742 20.26 2.64999C20.5146 2.57573 20.7293 2.40337 20.8568 2.17083C20.9843 1.93828 21.0143 1.6646 20.94 1.40999C20.8657 1.15539 20.6934 0.940706 20.4608 0.813181C20.2283 0.685657 19.9546 0.655733 19.7 0.729994C19.3494 0.838192 19.0135 0.98934 18.7 1.17999C18.3814 1.36629 18.019 1.46447 17.65 1.46447C17.281 1.46447 16.9186 1.36629 16.6 1.17999C15.9067 0.791066 15.125 0.586807 14.33 0.586807C13.535 0.586807 12.7534 0.791066 12.06 1.17999C11.7381 1.36705 11.3723 1.46558 11 1.46558C10.6277 1.46558 10.262 1.36705 9.94001 1.17999C9.24665 0.791066 8.465 0.586807 7.67001 0.586807C6.87502 0.586807 6.09336 0.791066 5.40001 1.17999C5.08144 1.36629 4.71905 1.46447 4.35001 1.46447C3.98097 1.46447 3.61857 1.36629 3.30001 1.17999C2.9865 0.98934 2.65062 0.838192 2.30001 0.729994C2.0454 0.655733 1.77172 0.685657 1.53917 0.813181C1.30663 0.940706 1.13427 1.15539 1.06001 1.40999C0.985746 1.6646 1.01567 1.93828 1.14319 2.17083C1.27072 2.40337 1.4854 2.57573 1.74001 2.64999H1.72001ZM19.72 10.73C19.3694 10.8382 19.0335 10.9893 18.72 11.18C18.4014 11.3663 18.039 11.4645 17.67 11.4645C17.301 11.4645 16.9386 11.3663 16.62 11.18C15.9267 10.7911 15.145 10.5868 14.35 10.5868C13.555 10.5868 12.7734 10.7911 12.08 11.18C11.7581 11.367 11.3923 11.4656 11.02 11.4656C10.6477 11.4656 10.282 11.367 9.96001 11.18C9.26665 10.7911 8.485 10.5868 7.69001 10.5868C6.89502 10.5868 6.11336 10.7911 5.42001 11.18C5.10144 11.3663 4.73905 11.4645 4.37001 11.4645C4.00097 11.4645 3.63857 11.3663 3.32001 11.18C3.0065 10.9893 2.67062 10.8382 2.32001 10.73C2.19394 10.6932 2.06186 10.6816 1.93132 10.6959C1.80077 10.7102 1.67432 10.75 1.55917 10.8132C1.44403 10.8763 1.34245 10.9615 1.26023 11.0639C1.17802 11.1663 1.11678 11.2839 1.08001 11.41C1.04324 11.5361 1.03166 11.6681 1.04593 11.7987C1.0602 11.9292 1.10005 12.0557 1.16319 12.1708C1.22634 12.286 1.31154 12.3876 1.41394 12.4698C1.51635 12.552 1.63394 12.6132 1.76001 12.65C1.95556 12.7074 2.14356 12.788 2.32001 12.89C2.93982 13.2599 3.64819 13.4552 4.37001 13.4552C5.09182 13.4552 5.80019 13.2599 6.42001 12.89C6.81047 12.6692 7.25142 12.5531 7.70001 12.5531C8.14859 12.5531 8.58955 12.6692 8.98001 12.89C9.60731 13.2487 10.3174 13.4374 11.04 13.4374C11.7626 13.4374 12.4727 13.2487 13.1 12.89C13.4905 12.6692 13.9314 12.5531 14.38 12.5531C14.8286 12.5531 15.2695 12.6692 15.66 12.89C16.2937 13.2522 17.0101 13.445 17.74 13.45C18.4452 13.4485 19.1366 13.2549 19.74 12.89C19.9165 12.788 20.1045 12.7074 20.3 12.65C20.5546 12.5757 20.7693 12.4034 20.8968 12.1708C21.0243 11.9383 21.0543 11.6646 20.98 11.41C20.9057 11.1554 20.7334 10.9407 20.5008 10.8132C20.2683 10.6857 19.9946 10.6557 19.74 10.73H19.72ZM19.72 5.72999C19.3694 5.83819 19.0335 5.98934 18.72 6.17999C18.4014 6.36629 18.039 6.46447 17.67 6.46447C17.301 6.46447 16.9386 6.36629 16.62 6.17999C15.9267 5.79107 15.145 5.58681 14.35 5.58681C13.555 5.58681 12.7734 5.79107 12.08 6.17999C11.7581 6.36705 11.3923 6.46558 11.02 6.46558C10.6477 6.46558 10.282 6.36705 9.96001 6.17999C9.26665 5.79107 8.485 5.58681 7.69001 5.58681C6.89502 5.58681 6.11336 5.79107 5.42001 6.17999C5.10144 6.36629 4.73905 6.46447 4.37001 6.46447C4.00097 6.46447 3.63857 6.36629 3.32001 6.17999C3.0065 5.98934 2.67062 5.83819 2.32001 5.72999C2.18907 5.68056 2.04921 5.65916 1.90948 5.66718C1.76976 5.67521 1.63327 5.71247 1.50885 5.77657C1.38443 5.84066 1.27485 5.93016 1.1872 6.03927C1.09954 6.14838 1.03577 6.27468 1.00001 6.40999C0.963237 6.53606 0.951658 6.66814 0.965931 6.79868C0.980204 6.92923 1.02005 7.05568 1.08319 7.17083C1.14634 7.28597 1.23154 7.38755 1.33394 7.46977C1.43635 7.55198 1.55394 7.61322 1.68001 7.64999C1.87556 7.70742 2.06356 7.78799 2.24001 7.88999C2.85982 8.25993 3.56819 8.45524 4.29001 8.45524C5.01182 8.45524 5.72019 8.25993 6.34001 7.88999C6.73047 7.66915 7.17142 7.55309 7.62001 7.55309C8.06859 7.55309 8.50955 7.66915 8.90001 7.88999C9.52731 8.24869 10.2374 8.43737 10.96 8.43737C11.6826 8.43737 12.3927 8.24869 13.02 7.88999C13.4105 7.66915 13.8514 7.55309 14.3 7.55309C14.7486 7.55309 15.1895 7.66915 15.58 7.88999C16.2137 8.25218 16.9301 8.44504 17.66 8.44999C18.3652 8.44854 19.0566 8.25494 19.66 7.88999C19.8365 7.78799 20.0245 7.70742 20.22 7.64999C20.4746 7.57573 20.6893 7.40337 20.8168 7.17083C20.9443 6.93828 20.9743 6.6646 20.9 6.40999C20.8257 6.15539 20.6534 5.94071 20.4208 5.81318C20.1883 5.68566 19.9146 5.65573 19.66 5.72999H19.72Z" fill="black"/>
</svg>
