<svg width="50" height="120" viewBox="0 0 50 120" fill="none" xmlns="http://www.w3.org/2000/svg">
<path d="M50.0002 47.5001V31.0351C50.016 28.2882 48.9952 25.6365 47.1414 23.6094C45.2877 21.5824 42.7375 20.3292 40.0002 20.1001V17.5001C40.0002 13.3651 36.6352 10.0001 32.5002 10.0001H30.0002V2.50008C30.0001 2.0054 29.8532 1.52188 29.5782 1.1107C29.3032 0.69952 28.9123 0.379174 28.4552 0.190207C27.998 0.00123966 27.4951 -0.0478546 27.01 0.0491378C26.5249 0.14613 26.0795 0.384849 25.7302 0.73508L20.7302 5.73508C20.2628 6.20361 20.0003 6.83832 20.0002 7.50008V10.0001H17.5002C13.3652 10.0001 10.0002 13.3651 10.0002 17.5001V20.1001C7.26286 20.3292 4.71269 21.5824 2.85894 23.6094C1.0052 25.6365 -0.0156804 28.2882 0.000182119 31.0351V47.5001C-0.000404617 47.8286 0.0637654 48.154 0.189024 48.4577C0.314282 48.7614 0.498173 49.0375 0.730182 49.2701C3.89018 52.4301 3.89018 57.5701 0.730182 60.7351C0.262837 61.2036 0.000322714 61.8383 0.000182119 62.5001V108.965C0.000182119 111.915 1.15018 114.685 3.23018 116.765C5.31018 118.845 8.08518 120 11.0352 120H38.9652C41.9152 120 44.6852 118.85 46.7652 116.77C48.8452 114.69 50.0002 111.915 50.0002 108.97V62.5001C50 61.8383 49.7375 61.2036 49.2702 60.7351C47.753 59.213 46.9011 57.1516 46.9011 55.0026C46.9011 52.8535 47.753 50.7921 49.2702 49.2701C49.5022 49.0375 49.6861 48.7614 49.8113 48.4577C49.9366 48.154 50.0008 47.8286 50.0002 47.5001Z" fill="#303C42"/>
<path d="M15 17.5C15 16.837 15.2634 16.2011 15.7322 15.7322C16.2011 15.2634 16.837 15 17.5 15H32.5C33.1631 15 33.7989 15.2634 34.2678 15.7322C34.7366 16.2011 35 16.837 35 17.5V20H15V17.5ZM45 46.53C42.9986 48.8995 41.9007 51.9009 41.9007 55.0025C41.9007 58.1041 42.9986 61.1055 45 63.475V108.965C45 110.575 44.37 112.095 43.23 113.235C42.6708 113.796 42.0061 114.241 41.274 114.544C40.542 114.847 39.7572 115.002 38.965 115H11.035C10.2428 115.002 9.45802 114.847 8.726 114.544C7.99397 114.241 7.32919 113.796 6.77001 113.235C6.20754 112.675 5.76151 112.01 5.45771 111.277C5.1539 110.544 4.99834 109.758 5.00001 108.965V63.475C7.00272 61.1052 8.10149 58.1027 8.10149 55C8.10149 51.8973 7.00272 48.8948 5.00001 46.525V31.04C5.00001 29.43 5.63001 27.915 6.77001 26.775C7.32837 26.212 7.99278 25.7652 8.72484 25.4606C9.4569 25.1559 10.2421 24.9994 11.035 25H38.965C39.7576 24.9987 40.5426 25.1545 41.2746 25.4583C42.0066 25.7621 42.6712 26.2079 43.23 26.77C44.37 27.91 45 29.425 45 31.035V46.53Z" fill="#78909C"/>
<path opacity="0.2" d="M10 108.965V63.4749C13.1 58.5999 13.1 51.3999 10 46.5249V31.0399C10 29.4299 10.47 27.9149 11.325 26.7749C12.185 25.6349 13.32 25.0049 14.525 25.0049H11.035C10.2424 25.0036 9.45745 25.1594 8.72541 25.4632C7.99336 25.767 7.32877 26.2128 6.77 26.7749C6.20872 27.3332 5.76338 27.997 5.45961 28.7281C5.15585 29.4592 4.99965 30.2432 5 31.0349V46.5299C7.00139 48.8993 8.09937 51.9008 8.09937 55.0024C8.09937 58.104 7.00139 61.1054 5 63.4749V108.965C5 110.575 5.63 112.095 6.77 113.235C7.32918 113.796 7.99396 114.241 8.72598 114.544C9.458 114.847 10.2428 115.002 11.035 115H14.525C13.32 115 12.185 114.375 11.325 113.235C10.4379 111.99 9.97352 110.493 10 108.965Z" fill="white"/>
<path opacity="0.1" d="M44.9999 31.035C44.9999 29.425 44.3699 27.91 43.2299 26.77C42.6711 26.2079 42.0065 25.7621 41.2744 25.4583C40.5424 25.1545 39.7574 24.9987 38.9649 25H35.4749C36.6799 25 37.8149 25.63 38.6749 26.77C39.5249 27.91 39.9999 29.425 39.9999 31.035V46.53C36.8999 51.4 36.8999 58.6 39.9999 63.475V108.965C39.9999 110.575 39.5299 112.095 38.6749 113.235C37.8149 114.375 36.6799 115 35.4749 115H38.9649C39.7571 115.002 40.5418 114.847 41.2739 114.544C42.0059 114.241 42.6707 113.796 43.2299 113.235C44.3699 112.095 44.9999 110.575 44.9999 108.965V63.475C42.9971 61.1052 41.8984 58.1027 41.8984 55C41.8984 51.8973 42.9971 48.8948 44.9999 46.525V31.04V31.035Z" fill="black"/>
<path d="M23 66.0001C22.675 66.4351 15 76.7601 15 85.0001C15 90.5151 19.485 95.0001 25 95.0001C30.515 95.0001 35 90.5151 35 85.0001C35 76.7601 27.325 66.4351 27 66.0001C26.7565 65.7056 26.451 65.4685 26.1053 65.3057C25.7595 65.143 25.3821 65.0586 25 65.0586C24.6179 65.0586 24.2405 65.143 23.8947 65.3057C23.549 65.4685 23.2435 65.7056 23 66.0001Z" fill="#303C42"/>
<path d="M25 89.9997C22.24 89.9997 20 87.7547 20 84.9997C20 80.9647 22.775 75.5547 25 71.9647C27.23 75.5497 30 80.9497 30 84.9997C30 87.7547 27.76 89.9997 25 89.9997Z" fill="#1E88E5"/>
<path opacity="0.1" d="M25.925 73.5699C26.84 75.7899 27.5 78.0549 27.5 79.9999C27.5 82.7549 25.26 84.9999 22.5 84.9999C21.6526 84.9799 20.8253 84.7386 20.1 84.2999C20.085 84.525 20 84.7849 20 84.9999C20 86.326 20.5268 87.5978 21.4645 88.5355C22.4021 89.4732 23.6739 89.9999 25 89.9999C26.3261 89.9999 27.5979 89.4732 28.5355 88.5355C29.4732 87.5978 30 86.326 30 84.9999C30 81.4999 27.93 77.0449 25.925 73.5699Z" fill="black"/>
<path d="M27.5996 66.85C29.4496 69.475 34.9996 77.97 34.9996 85C34.9996 90.515 30.5146 95 24.9996 95C22.4431 94.9964 19.9863 94.0079 18.1396 92.24V92.255L40.5696 114.685C41.5546 114.41 42.4846 113.98 43.2296 113.235C44.3696 112.095 44.9996 110.575 44.9996 108.965V84.25L27.5996 66.85Z" fill="url(#paint0_linear_1713_2744)"/>
<path d="M50.0002 47.5001V31.0351C50.016 28.2882 48.9952 25.6365 47.1414 23.6094C45.2877 21.5824 42.7375 20.3292 40.0002 20.1001V17.5001C40.0002 13.3651 36.6352 10.0001 32.5002 10.0001H30.0002V2.50008C30.0001 2.0054 29.8532 1.52188 29.5782 1.1107C29.3032 0.69952 28.9123 0.379174 28.4552 0.190207C27.998 0.00123966 27.4951 -0.0478546 27.01 0.0491378C26.5249 0.14613 26.0795 0.384849 25.7302 0.73508L20.7302 5.73508C20.2628 6.20361 20.0003 6.83832 20.0002 7.50008V10.0001H17.5002C13.3652 10.0001 10.0002 13.3651 10.0002 17.5001V20.1001C7.26286 20.3292 4.71269 21.5824 2.85894 23.6094C1.0052 25.6365 -0.0156804 28.2882 0.000182119 31.0351V47.5001C-0.000404617 47.8286 0.0637654 48.154 0.189024 48.4577C0.314282 48.7614 0.498173 49.0375 0.730182 49.2701C3.89018 52.4301 3.89018 57.5701 0.730182 60.7351C0.262837 61.2036 0.000322714 61.8383 0.000182119 62.5001V108.965C0.000182119 111.915 1.15018 114.685 3.23018 116.765C5.31018 118.845 8.08518 120 11.0352 120H38.9652C41.9152 120 44.6852 118.85 46.7652 116.77C48.8452 114.69 50.0002 111.915 50.0002 108.97V62.5001C50 61.8383 49.7375 61.2036 49.2702 60.7351C47.753 59.213 46.9011 57.1516 46.9011 55.0026C46.9011 52.8535 47.753 50.7921 49.2702 49.2701C49.5022 49.0375 49.6861 48.7614 49.8113 48.4577C49.9366 48.154 50.0008 47.8286 50.0002 47.5001Z" fill="url(#paint1_linear_1713_2744)"/>
<defs>
<linearGradient id="paint0_linear_1713_2744" x1="18.8846" y1="75.565" x2="49.8947" y2="106.575" gradientUnits="userSpaceOnUse">
<stop stop-opacity="0.1"/>
<stop offset="1" stop-opacity="0"/>
</linearGradient>
<linearGradient id="paint1_linear_1713_2744" x1="-8.76482" y1="47.3751" x2="64.0402" y2="81.3201" gradientUnits="userSpaceOnUse">
<stop stop-color="white" stop-opacity="0.2"/>
<stop offset="1" stop-color="white" stop-opacity="0"/>
</linearGradient>
</defs>
</svg>
