<svg width="16" height="21" viewBox="0 0 16 21" fill="none" xmlns="http://www.w3.org/2000/svg">
<path d="M14.08 6C13.9486 5.98906 13.8163 6.00422 13.6908 6.04461C13.5653 6.08499 13.449 6.1498 13.3486 6.23531C13.2482 6.32082 13.1657 6.42533 13.1059 6.54284C13.0461 6.66034 13.0101 6.78852 13 6.92L12.65 11.47C12.1876 11.3269 11.7728 11.0607 11.45 10.7C11.3562 10.5936 11.2407 10.5084 11.1114 10.45C10.9821 10.3916 10.8419 10.3614 10.7 10.3614C10.5581 10.3614 10.4179 10.3916 10.2886 10.45C10.1592 10.5084 10.0438 10.5936 9.95 10.7C9.7018 10.9697 9.40036 11.185 9.06471 11.3323C8.72907 11.4795 8.36653 11.5556 8 11.5556C7.63347 11.5556 7.27092 11.4795 6.93528 11.3323C6.59964 11.185 6.29819 10.9697 6.05 10.7C5.95616 10.5936 5.84075 10.5084 5.71143 10.45C5.58212 10.3916 5.44187 10.3614 5.3 10.3614C5.15812 10.3614 5.01787 10.3916 4.88856 10.45C4.75925 10.5084 4.64384 10.5936 4.55 10.7C4.22622 11.0595 3.81176 11.3255 3.35 11.47L3 6.92C2.9899 6.78852 2.95391 6.66034 2.89408 6.54284C2.83425 6.42533 2.75178 6.32082 2.6514 6.23531C2.55102 6.1498 2.43472 6.08499 2.3092 6.04461C2.18367 6.00422 2.0514 5.98906 1.92 6C1.78852 6.01009 1.66034 6.04609 1.54284 6.10592C1.42533 6.16574 1.32082 6.24822 1.23531 6.3486C1.1498 6.44897 1.08499 6.56527 1.04461 6.69079C1.00422 6.81632 0.989061 6.94859 0.999997 7.08L1.86 18.23C1.91806 18.9851 2.25958 19.6904 2.81602 20.2041C3.37246 20.7179 4.10264 21.0022 4.86 21H11.16C11.9174 21.0022 12.6475 20.7179 13.204 20.2041C13.7604 19.6904 14.1019 18.9851 14.16 18.23L15 7.08C15.0109 6.94859 14.9958 6.81632 14.9554 6.69079C14.915 6.56527 14.8502 6.44897 14.7647 6.3486C14.6792 6.24822 14.5747 6.16574 14.4572 6.10592C14.3396 6.04609 14.2115 6.01009 14.08 6ZM12.14 18.08C12.1198 18.3311 12.0057 18.5654 11.8203 18.7359C11.6349 18.9065 11.3919 19.0008 11.14 19H4.85C4.59808 19.0008 4.35513 18.9065 4.16974 18.7359C3.98434 18.5654 3.87015 18.3311 3.85 18.08L3.5 13.5C4.14834 13.3645 4.76135 13.0954 5.3 12.71C6.08868 13.2707 7.03234 13.5719 8 13.5719C8.96765 13.5719 9.91131 13.2707 10.7 12.71C11.2386 13.0954 11.8517 13.3645 12.5 13.5L12.14 18.08ZM8 9C8.86114 8.99736 9.68626 8.6541 10.2952 8.04518C10.9041 7.43626 11.2474 6.61114 11.25 5.75C11.25 3 8.67 1.24 8.56 1.17C8.39463 1.05822 8.1996 0.998489 8 0.998489C7.8004 0.998489 7.60536 1.05822 7.44 1.17C7.33 1.25 4.75 3 4.75 5.75C4.75263 6.61114 5.09589 7.43626 5.70481 8.04518C6.31374 8.6541 7.13885 8.99736 8 9ZM8 3.3C8.72364 3.91972 9.17295 4.80038 9.25 5.75C9.25 6.08152 9.1183 6.39946 8.88388 6.63388C8.64946 6.8683 8.33152 7 8 7C7.66848 7 7.35053 6.8683 7.11611 6.63388C6.88169 6.39946 6.75 6.08152 6.75 5.75C6.83229 4.80187 7.28065 3.92309 8 3.3Z" fill="#89CFF0"/>
</svg>
